<svg style="visibility:hidden; width: 0; height: 0;" xmlns="http://www.w3.org/2000/svg" xmlns:xlink="http://www.w3.org/1999/xlink" >

    <symbol id="plus" viewBox="0 0 512 512">
        <path d="M417.4,224H288V94.6c0-16.9-14.3-30.6-32-30.6c-17.7,0-32,13.7-32,30.6V224H94.6C77.7,224,64,238.3,64,256  c0,17.7,13.7,32,30.6,32H224v129.4c0,16.9,14.3,30.6,32,30.6c17.7,0,32-13.7,32-30.6V288h129.4c16.9,0,30.6-14.3,30.6-32  C448,238.3,434.3,224,417.4,224z"/>
    </symbol>

    <symbol id="close" viewBox="0 0 512 512">
       <path d="M437.5,386.6L306.9,256l130.6-130.6c14.1-14.1,14.1-36.8,0-50.9c-14.1-14.1-36.8-14.1-50.9,0L256,205.1L125.4,74.5  c-14.1-14.1-36.8-14.1-50.9,0c-14.1,14.1-14.1,36.8,0,50.9L205.1,256L74.5,386.6c-14.1,14.1-14.1,36.8,0,50.9  c14.1,14.1,36.8,14.1,50.9,0L256,306.9l130.6,130.6c14.1,14.1,36.8,14.1,50.9,0C451.5,423.4,451.5,400.6,437.5,386.6z"/>
    </symbol>

    <symbol id="delete" viewBox="0 0 48 48">
        <path d="M12 38c0 2.21 1.79 4 4 4h16c2.21 0 4-1.79 4-4V14H12v24zM38 8h-7l-2-2H19l-2 2h-7v4h28V8z"/>
        <path d="M0 0h48v48H0z" fill="none"/>
    </symbol>

    <symbol id="edit" viewBox="0 0 24 24" >
        <path d="m16 2.012 3 3L16.713 7.3l-3-3zM4 14v3h3l8.299-8.287-3-3zm0 6h16v2H4z"/>
    </symbol> 
    
    <symbol id="search" viewBox="0 0 24 24" >                 
        <path fill="brown" d="M17.607,14.79l4.8,4.8a1.994,1.994,0,0,1-2.82,2.82l-4.8-4.8Z"/>
        <circle fill="#3ed0f7" cx="9.998" cy="10" r="9"/>
        <path fill="#cffeff" d="M5,11a1,1,0,0,1-1-1,6.006,6.006,0,0,1,6-6,1,1,0,0,1,0,2,4,4,0,0,0-4,4A1,1,0,0,1,5,11Z"/>
    </symbol>

    <symbol id="date-start" viewBox="0 0 24 24" >                 
        <circle fill="#3ed0f7" cx="12" cy="13" r="10"/>              
        <path fill="#cffeff"  d="M9,17a1,1,0,0,1-.707-1.707L11,12.586V7a1,1,0,0,1,2,0v6a1,1,0,0,1-.293.707l-3,3A1,1,0,0,1,9,17Z"/>
    </symbol>

    <symbol id="date-end" viewBox="0 0 24 24" >
        <path fill="red" d="M2.72,9.28A4,4,0,1,1,8.28,3.72Z"/>
        <path fill="red"  d="M21.28,9.28a4,4,0,1,0-5.56-5.56Z"/>
        <path class="cls-3" d="M12,5a1,1,0,0,1-1-1V1a1,1,0,0,1,2,0V4A1,1,0,0,1,12,5Z"/>            
        <circle fill="#3ed0f7" cx="12" cy="13" r="10"/>              
        <path fill="#cffeff"  d="M9,17a1,1,0,0,1-.707-1.707L11,12.586V7a1,1,0,0,1,2,0v6a1,1,0,0,1-.293.707l-3,3A1,1,0,0,1,9,17Z"/>
    </symbol>

    <symbol id="pencil" viewBox="0 0 48 48">    
        <path fill="red" d="M41.43,11.27,36.61,6.46a2.8,2.8,0,0,0-4,0L8,31.06,6.27,38.73l3.06,3.06,7.49-1.94,24.61-24.6A2.83,2.83,0,0,0,41.43,11.27Z"/>
        <polygon fill="red" points="7.24 39.7 10.56 33.59 14.29 37.32 8.19 40.65 7.24 39.7"/>
        <polygon fill="red" points="9.33 41.78 16.82 39.85 18.45 38.23 14.29 37.32 8.19 40.65 9.33 41.78"/>
        <path fill="black" d="M7.33,42.3l2-.51L6.27,38.73s-.21.91-.46,2S6.23,42.58,7.33,42.3Z"/>
        <path fill="#efefef" d="M41.43,11.27,36.61,6.46a2.8,2.8,0,0,0-4,0L29.92,9.17l2.53,2.53,3.73,3.73L38.71,18l2.72-2.71A2.83,2.83,0,0,0,41.43,11.27Z"/>
        <path fill="#efefef" d="M41.46,11.87,37.62,8a2.25,2.25,0,0,0-3.17,0l-3.07,3.08,2,2,3,3,2,2L41.46,15A2.24,2.24,0,0,0,41.46,11.87Z"/>
        <rect fill="orange" height="3.58" transform="translate(-11.37 19.67) rotate(-44.99)" width="24.8" x="5.67" y="21.77"/>
        <rect fill="orange" height="3.58" transform="translate(-13.96 25.93) rotate(-45)" width="24.8" x="11.92" y="28.03"/>
        <rect fill="orange" height="5.27" transform="translate(-12.66 22.8) rotate(-45)" width="24.8" x="8.79" y="24.05"/>
        <rect fill="black" height="3.58" transform="translate(-3.02 30.45) rotate(-44.98)" width="7.63" x="31.46" y="17.08"/>
        <rect fill="black" height="3.58" transform="translate(-0.43 24.2) rotate(-44.98)" width="7.62" x="25.2" y="10.83"/>
        <rect fill="black" height="5.27" transform="translate(-1.72 27.34) rotate(-45)" width="7.62" x="28.33" y="13.11"/>
        <rect fill="black" height="3.58" transform="translate(-3.02 30.46) rotate(-44.99)" width="6.15" x="32.19" y="17.08"/>
        <rect fill="black" height="3.58" transform="translate(-0.43 24.2) rotate(-44.99)" width="6.15" x="25.94" y="10.83"/>
        <rect fill="black" height="5.27" transform="translate(-1.72 27.34) rotate(-45)" width="6.15" x="29.06" y="13.11"/>
    </symbol>

    <symbol id="sun" viewBox="0 0 256 256" >                 
        <rect fill="none" height="256" width="256"/>
        <circle cx="128" cy="128" r="68"/>
        <path d="M128,44a8,8,0,0,0,8-8V16a8,8,0,0,0-16,0V36A8,8,0,0,0,128,44Z"/>
        <path d="M57.3,68.6a8.1,8.1,0,0,0,11.3,0,8,8,0,0,0,0-11.3L54.5,43.1A8.1,8.1,0,1,0,43.1,54.5Z"/>
        <path d="M44,128a8,8,0,0,0-8-8H16a8,8,0,0,0,0,16H36A8,8,0,0,0,44,128Z"/>
        <path d="M57.3,187.4,43.1,201.5a8.1,8.1,0,0,0,0,11.4,8.5,8.5,0,0,0,5.7,2.3,8.3,8.3,0,0,0,5.7-2.3l14.1-14.2a8,8,0,0,0-11.3-11.3Z"/>
        <path d="M128,212a8,8,0,0,0-8,8v20a8,8,0,0,0,16,0V220A8,8,0,0,0,128,212Z"/>
        <path d="M198.7,187.4a8,8,0,0,0-11.3,11.3l14.1,14.2a8.3,8.3,0,0,0,5.7,2.3,8.5,8.5,0,0,0,5.7-2.3,8.1,8.1,0,0,0,0-11.4Z"/>
        <path d="M240,120H220a8,8,0,0,0,0,16h20a8,8,0,0,0,0-16Z"/>
        <path d="M193.1,70.9a7.8,7.8,0,0,0,5.6-2.3l14.2-14.1a8.1,8.1,0,0,0-11.4-11.4L187.4,57.3a8,8,0,0,0,0,11.3A7.8,7.8,0,0,0,193.1,70.9Z"/>
    </symbol>

    <symbol id="moon" viewBox="0 0 512 512" >                 
        <path d="M264,480A232,232,0,0,1,32,248C32,154,86,69.72,169.61,33.33a16,16,0,0,1,21.06,21.06C181.07,76.43,176,104.66,176,136c0,110.28,89.72,200,200,200,31.34,0,59.57-5.07,81.61-14.67a16,16,0,0,1,21.06,21.06C442.28,426,358,480,264,480Z"/>
    </symbol>

    <symbol id="alert" viewBox="0 0 48 48">                 
        <path d="M23.957,0c-13.255,0-24,10.745-24,24s10.745,24,24,24s24-10.745,24-24S37.212,0,23.957,0z M24.663,36.56  c-0.451,0.486-1.091,0.729-1.924,0.729c-0.832,0-1.471-0.237-1.916-0.712s-0.668-1.14-0.668-1.995c0-1.77,0.861-2.654,2.584-2.654  c0.844,0,1.488,0.231,1.934,0.694s0.668,1.116,0.668,1.96C25.341,35.414,25.114,36.073,24.663,36.56z M30.931,19.403  c-0.258,0.686-0.648,1.339-1.17,1.96s-1.42,1.43-2.697,2.426c-1.09,0.855-1.82,1.564-2.189,2.127  c-0.312,0.475-0.483,1.096-0.531,1.847c-0.003,0.016-0.008,0.021-0.011,0.037c-0.21,1.183-1.584,1.175-1.584,1.175h-0.722  c0,0-1.195-0.188-1.15-1.125c0-1.289,0.234-2.361,0.703-3.217s1.29-1.74,2.461-2.654c1.395-1.102,2.293-1.957,2.697-2.566  s0.607-1.336,0.607-2.18c0-0.984-0.328-1.74-0.984-2.268s-1.6-0.791-2.83-0.791c-1.114,0-2.145,0.158-3.094,0.475  c-0.518,0.173-1.027,0.369-1.532,0.58c-0.011,0.004-0.015,0.002-0.027,0.007c-1.166,0.451-1.707-0.466-1.707-0.466l-0.458-0.959  c-0.002-0.006-0.516-1.177,0.63-1.692c2.043-0.934,4.204-1.406,6.486-1.406c2.296,0,4.119,0.563,5.466,1.688  s2.021,2.678,2.021,4.658C31.317,17.936,31.188,18.718,30.931,19.403z" fill="red"/>
    </symbol>

    <symbol id="email" viewBox="0 0 24 24" >    
        <rect fill="#ffab17"  class="cls-1" height="18" rx="3" width="22" x="1" y="3"/>
        <path fill="#fff650"  class="cls-2" d="M15.717,12.029l3.956-3.6a1,1,0,0,0-1.346-1.48L13.35,11.479a2.005,2.005,0,0,1-2.7,0L5.673,6.95A1,1,0,1,0,4.327,8.43l3.957,3.6L4.328,15.62A1,1,0,1,0,5.672,17.1l4.143-3.76a3.937,3.937,0,0,0,4.37,0l4.143,3.76a1,1,0,1,0,1.344-1.48Z"/>
    </symbol>

    <symbol id="password" viewBox="0 0 24 24" >          
        <path fill="#3ed0f7" d="M18,6V7H16V6a3.978,3.978,0,0,0-4-4A4,4,0,0,0,8.08,5.2a1,1,0,1,1-1.96-.4A6,6,0,0,1,18,6Z"/>
        <path fill="#3ed0f7" d="M18,9H6a3,3,0,0,0-3,3v8a3,3,0,0,0,3,3H18a3,3,0,0,0,3-3V12A3,3,0,0,0,18,9Zm-5,7.73V19a1,1,0,0,1-2,0V16.73a2,2,0,1,1,2,0Z"/>
    </symbol>

    <symbol id="spinner" viewBox="0 0 24 24" >          
        <path clip-rule="evenodd" d="M12 19C15.866 19 19 15.866 19 12C19 8.13401 15.866 5 12 5C8.13401 5 5 8.13401 5 12C5 15.866 8.13401 19 12 19ZM12 22C17.5228 22 22 17.5228 22 12C22 6.47715 17.5228 2 12 2C6.47715 2 2 6.47715 2 12C2 17.5228 6.47715 22 12 22Z" fill="currentColor" fill-rule="evenodd" opacity="0.2"/>
        <path d="M2 12C2 6.47715 6.47715 2 12 2V5C8.13401 5 5 8.13401 5 12H2Z" fill="currentColor"/>
    </symbol>

    <symbol id="profile" viewBox="0 0 32 32" >          
        <path d="M22.62,7.12c0-3.65002-2.96997-6.62-6.62-6.62S9.38,3.46997,9.38,7.12c0,3.64001,2.96997,6.60999,6.62,6.60999   S22.62,10.76001,22.62,7.12z"/>
        <path d="M4.5,26v2c0,1.92999,1.57001,3.5,3.5,3.5h16c1.92999,0,3.5-1.57001,3.5-3.5v-2c0-6.34003-5.15997-11.5-11.5-11.5   S4.5,19.65997,4.5,26z"/>
    </symbol>

    <symbol id="eye-on" viewBox="0 0 512 512" >   
        <circle cx="256" cy="256" r="64"/>
        <path d="M394.82,141.18C351.1,111.2,304.31,96,255.76,96c-43.69,0-86.28,13-126.59,38.48C88.52,160.23,48.67,207,16,256c26.42,44,62.56,89.24,100.2,115.18C159.38,400.92,206.33,416,255.76,416c49,0,95.85-15.07,139.3-44.79C433.31,345,469.71,299.82,496,256,469.62,212.57,433.1,167.44,394.82,141.18ZM256,352a96,96,0,1,1,96-96A96.11,96.11,0,0,1,256,352Z"/>
    </symbol>

    <symbol id="eye-off" viewBox="0 0 512 512" >   
        <path d="M432,448a15.92,15.92,0,0,1-11.31-4.69l-352-352A16,16,0,0,1,91.31,68.69l352,352A16,16,0,0,1,432,448Z"/>
        <path d="M248,315.85l-51.79-51.79a2,2,0,0,0-3.39,1.69,64.11,64.11,0,0,0,53.49,53.49A2,2,0,0,0,248,315.85Z"/>
        <path d="M264,196.15,315.87,248a2,2,0,0,0,3.4-1.69,64.13,64.13,0,0,0-53.55-53.55A2,2,0,0,0,264,196.15Z"/>
        <path d="M491,273.36a32.2,32.2,0,0,0-.1-34.76c-26.46-40.92-60.79-75.68-99.27-100.53C349,110.55,302,96,255.68,96a226.54,226.54,0,0,0-71.82,11.79,4,4,0,0,0-1.56,6.63l47.24,47.24a4,4,0,0,0,3.82,1.05,96,96,0,0,1,116,116,4,4,0,0,0,1.05,3.81l67.95,68a4,4,0,0,0,5.4.24A343.81,343.81,0,0,0,491,273.36Z"/>
        <path d="M256,352a96,96,0,0,1-93.3-118.63,4,4,0,0,0-1.05-3.81L94.81,162.69a4,4,0,0,0-5.41-.23c-24.39,20.81-47,46.13-67.67,75.72a31.92,31.92,0,0,0-.64,35.54c26.41,41.33,60.39,76.14,98.28,100.65C162.06,402,207.92,416,255.68,416a238.22,238.22,0,0,0,72.64-11.55,4,4,0,0,0,1.61-6.64l-47.47-47.46a4,4,0,0,0-3.81-1.05A96,96,0,0,1,256,352Z"/>
    </symbol>    

</svg>    
