<svg style="visibility:hidden; width: 0; height: 0;" xmlns="http://www.w3.org/2000/svg" xmlns:xlink="http://www.w3.org/1999/xlink" >

    <symbol id="plus" viewBox="0 0 512 512">
        <path d="M417.4,224H288V94.6c0-16.9-14.3-30.6-32-30.6c-17.7,0-32,13.7-32,30.6V224H94.6C77.7,224,64,238.3,64,256  c0,17.7,13.7,32,30.6,32H224v129.4c0,16.9,14.3,30.6,32,30.6c17.7,0,32-13.7,32-30.6V288h129.4c16.9,0,30.6-14.3,30.6-32  C448,238.3,434.3,224,417.4,224z"/>
    </symbol>

    <symbol id="close" viewBox="0 0 512 512">
       <path d="M437.5,386.6L306.9,256l130.6-130.6c14.1-14.1,14.1-36.8,0-50.9c-14.1-14.1-36.8-14.1-50.9,0L256,205.1L125.4,74.5  c-14.1-14.1-36.8-14.1-50.9,0c-14.1,14.1-14.1,36.8,0,50.9L205.1,256L74.5,386.6c-14.1,14.1-14.1,36.8,0,50.9  c14.1,14.1,36.8,14.1,50.9,0L256,306.9l130.6,130.6c14.1,14.1,36.8,14.1,50.9,0C451.5,423.4,451.5,400.6,437.5,386.6z"/>
    </symbol>

    <symbol id="delete" viewBox="0 0 48 48">
        <path d="M12 38c0 2.21 1.79 4 4 4h16c2.21 0 4-1.79 4-4V14H12v24zM38 8h-7l-2-2H19l-2 2h-7v4h28V8z"/>
        <path d="M0 0h48v48H0z" fill="none"/>
    </symbol>

    <symbol id="edit" viewBox="0 0 24 24" >
        <path d="m16 2.012 3 3L16.713 7.3l-3-3zM4 14v3h3l8.299-8.287-3-3zm0 6h16v2H4z"/>
    </symbol> 

     <symbol id="info" viewBox="0 0 24 24" >
        <path fill="#e50031" d="M21.968,16.63a11.028,11.028,0,1,0-5.338,5.338l3.883.97a2,2,0,0,0,2.425-2.425Z"/>
        <circle fill="#f2f2f2" cx="8" cy="12" r="2"/>
        <circle fill="#f2f2f2" cx="16" cy="12" r="2"/>
    </symbol>

</svg>    
