<svg style="visibility:hidden; width: 0; height: 0;" xmlns="http://www.w3.org/2000/svg" xmlns:xlink="http://www.w3.org/1999/xlink" >

    <symbol id="plus" viewBox="0 0 512 512">
        <path d="M417.4,224H288V94.6c0-16.9-14.3-30.6-32-30.6c-17.7,0-32,13.7-32,30.6V224H94.6C77.7,224,64,238.3,64,256  c0,17.7,13.7,32,30.6,32H224v129.4c0,16.9,14.3,30.6,32,30.6c17.7,0,32-13.7,32-30.6V288h129.4c16.9,0,30.6-14.3,30.6-32  C448,238.3,434.3,224,417.4,224z"/>
    </symbol>

    <symbol id="close" viewBox="0 0 512 512">
       <path d="M437.5,386.6L306.9,256l130.6-130.6c14.1-14.1,14.1-36.8,0-50.9c-14.1-14.1-36.8-14.1-50.9,0L256,205.1L125.4,74.5  c-14.1-14.1-36.8-14.1-50.9,0c-14.1,14.1-14.1,36.8,0,50.9L205.1,256L74.5,386.6c-14.1,14.1-14.1,36.8,0,50.9  c14.1,14.1,36.8,14.1,50.9,0L256,306.9l130.6,130.6c14.1,14.1,36.8,14.1,50.9,0C451.5,423.4,451.5,400.6,437.5,386.6z"/>
    </symbol>

    <symbol id="delete" viewBox="0 0 48 48">
        <path d="M12 38c0 2.21 1.79 4 4 4h16c2.21 0 4-1.79 4-4V14H12v24zM38 8h-7l-2-2H19l-2 2h-7v4h28V8z"/>
        <path d="M0 0h48v48H0z" fill="none"/>
    </symbol>

    <symbol id="edit" viewBox="0 0 24 24" >
        <path d="m16 2.012 3 3L16.713 7.3l-3-3zM4 14v3h3l8.299-8.287-3-3zm0 6h16v2H4z"/>
    </symbol> 
    
    <symbol id="search" viewBox="0 0 24 24" >                 
        <path fill="brown" d="M17.607,14.79l4.8,4.8a1.994,1.994,0,0,1-2.82,2.82l-4.8-4.8Z"/>
        <circle fill="#3ed0f7" cx="9.998" cy="10" r="9"/>
        <path fill="#cffeff" d="M5,11a1,1,0,0,1-1-1,6.006,6.006,0,0,1,6-6,1,1,0,0,1,0,2,4,4,0,0,0-4,4A1,1,0,0,1,5,11Z"/>
    </symbol>

    <symbol id="date-start" viewBox="0 0 24 24" >                 
        <circle fill="#3ed0f7" cx="12" cy="13" r="10"/>              
        <path fill="#cffeff"  d="M9,17a1,1,0,0,1-.707-1.707L11,12.586V7a1,1,0,0,1,2,0v6a1,1,0,0,1-.293.707l-3,3A1,1,0,0,1,9,17Z"/>
    </symbol>

    <symbol id="date-end" viewBox="0 0 24 24" >
        <path fill="red" d="M2.72,9.28A4,4,0,1,1,8.28,3.72Z"/>
        <path fill="red"  d="M21.28,9.28a4,4,0,1,0-5.56-5.56Z"/>
        <path class="cls-3" d="M12,5a1,1,0,0,1-1-1V1a1,1,0,0,1,2,0V4A1,1,0,0,1,12,5Z"/>            
        <circle fill="#3ed0f7" cx="12" cy="13" r="10"/>              
        <path fill="#cffeff"  d="M9,17a1,1,0,0,1-.707-1.707L11,12.586V7a1,1,0,0,1,2,0v6a1,1,0,0,1-.293.707l-3,3A1,1,0,0,1,9,17Z"/>
    </symbol>

    <symbol id="pencil" viewBox="0 0 48 48">    
        <path fill="red" d="M41.43,11.27,36.61,6.46a2.8,2.8,0,0,0-4,0L8,31.06,6.27,38.73l3.06,3.06,7.49-1.94,24.61-24.6A2.83,2.83,0,0,0,41.43,11.27Z"/>
        <polygon fill="red" points="7.24 39.7 10.56 33.59 14.29 37.32 8.19 40.65 7.24 39.7"/>
        <polygon fill="red" points="9.33 41.78 16.82 39.85 18.45 38.23 14.29 37.32 8.19 40.65 9.33 41.78"/>
        <path fill="black" d="M7.33,42.3l2-.51L6.27,38.73s-.21.91-.46,2S6.23,42.58,7.33,42.3Z"/>
        <path fill="#efefef" d="M41.43,11.27,36.61,6.46a2.8,2.8,0,0,0-4,0L29.92,9.17l2.53,2.53,3.73,3.73L38.71,18l2.72-2.71A2.83,2.83,0,0,0,41.43,11.27Z"/>
        <path fill="#efefef" d="M41.46,11.87,37.62,8a2.25,2.25,0,0,0-3.17,0l-3.07,3.08,2,2,3,3,2,2L41.46,15A2.24,2.24,0,0,0,41.46,11.87Z"/>
        <rect fill="orange" height="3.58" transform="translate(-11.37 19.67) rotate(-44.99)" width="24.8" x="5.67" y="21.77"/>
        <rect fill="orange" height="3.58" transform="translate(-13.96 25.93) rotate(-45)" width="24.8" x="11.92" y="28.03"/>
        <rect fill="orange" height="5.27" transform="translate(-12.66 22.8) rotate(-45)" width="24.8" x="8.79" y="24.05"/>
        <rect fill="black" height="3.58" transform="translate(-3.02 30.45) rotate(-44.98)" width="7.63" x="31.46" y="17.08"/>
        <rect fill="black" height="3.58" transform="translate(-0.43 24.2) rotate(-44.98)" width="7.62" x="25.2" y="10.83"/>
        <rect fill="black" height="5.27" transform="translate(-1.72 27.34) rotate(-45)" width="7.62" x="28.33" y="13.11"/>
        <rect fill="black" height="3.58" transform="translate(-3.02 30.46) rotate(-44.99)" width="6.15" x="32.19" y="17.08"/>
        <rect fill="black" height="3.58" transform="translate(-0.43 24.2) rotate(-44.99)" width="6.15" x="25.94" y="10.83"/>
        <rect fill="black" height="5.27" transform="translate(-1.72 27.34) rotate(-45)" width="6.15" x="29.06" y="13.11"/>
    </symbol>

    <symbol id="sun" viewBox="0 0 256 256" >                 
        <rect fill="none" height="256" width="256"/>
        <circle cx="128" cy="128" r="68"/>
        <path d="M128,44a8,8,0,0,0,8-8V16a8,8,0,0,0-16,0V36A8,8,0,0,0,128,44Z"/>
        <path d="M57.3,68.6a8.1,8.1,0,0,0,11.3,0,8,8,0,0,0,0-11.3L54.5,43.1A8.1,8.1,0,1,0,43.1,54.5Z"/>
        <path d="M44,128a8,8,0,0,0-8-8H16a8,8,0,0,0,0,16H36A8,8,0,0,0,44,128Z"/>
        <path d="M57.3,187.4,43.1,201.5a8.1,8.1,0,0,0,0,11.4,8.5,8.5,0,0,0,5.7,2.3,8.3,8.3,0,0,0,5.7-2.3l14.1-14.2a8,8,0,0,0-11.3-11.3Z"/>
        <path d="M128,212a8,8,0,0,0-8,8v20a8,8,0,0,0,16,0V220A8,8,0,0,0,128,212Z"/>
        <path d="M198.7,187.4a8,8,0,0,0-11.3,11.3l14.1,14.2a8.3,8.3,0,0,0,5.7,2.3,8.5,8.5,0,0,0,5.7-2.3,8.1,8.1,0,0,0,0-11.4Z"/>
        <path d="M240,120H220a8,8,0,0,0,0,16h20a8,8,0,0,0,0-16Z"/>
        <path d="M193.1,70.9a7.8,7.8,0,0,0,5.6-2.3l14.2-14.1a8.1,8.1,0,0,0-11.4-11.4L187.4,57.3a8,8,0,0,0,0,11.3A7.8,7.8,0,0,0,193.1,70.9Z"/>
    </symbol>

    <symbol id="moon" viewBox="0 0 512 512" >                 
        <path d="M264,480A232,232,0,0,1,32,248C32,154,86,69.72,169.61,33.33a16,16,0,0,1,21.06,21.06C181.07,76.43,176,104.66,176,136c0,110.28,89.72,200,200,200,31.34,0,59.57-5.07,81.61-14.67a16,16,0,0,1,21.06,21.06C442.28,426,358,480,264,480Z"/>
    </symbol>
</svg>    
